PathFileType	4	(X/Y/Z)	/Users/itak/Documents/Research/Walk-IL/dataset/trc/00137_00007.trc
DataRate	CameraRate	NumFrames	NumMarkers	Units	OrigDataRate	OrigDataStartFrame	OrigNumFrames
100.000000	100.000000	4	53	mm	100.000000	363	726
Frame#	Time	RPSI			LPSI			L3			STRN			T10			C7			CLAV			RBAK			LBAK			LSHO			LUPA			LAEL			LAOL			LWTS			LWPS			LFRA			LIFD			LHPS			LHTS			RSHO			RUPA			RAEL			RAOL			RWTS			RWPS			RFRA			RIFD			RHTS			RHPS			RBHD			LFHD			RFHD			LBHD			LHIP			RHIP			RASI			LASI			LKNE			LTHI			LANK			LTIP			LTOE			LMT1			LMT5			LHEE			RKNE			RTHI			RANK			RTIP			RTOE			RMT1			RMT5			RHEE			
		X1	Y1	Z1	X2	Y2	Z2	X3	Y3	Z3	X4	Y4	Z4	X5	Y5	Z5	X6	Y6	Z6	X7	Y7	Z7	X8	Y8	Z8	X9	Y9	Z9	X10	Y10	Z10	X11	Y11	Z11	X12	Y12	Z12	X13	Y13	Z13	X14	Y14	Z14	X15	Y15	Z15	X16	Y16	Z16	X17	Y17	Z17	X18	Y18	Z18	X19	Y19	Z19	X20	Y20	Z20	X21	Y21	Z21	X22	Y22	Z22	X23	Y23	Z23	X24	Y24	Z24	X25	Y25	Z25	X26	Y26	Z26	X27	Y27	Z27	X28	Y28	Z28	X29	Y29	Z29	X30	Y30	Z30	X31	Y31	Z31	X32	Y32	Z32	X33	Y33	Z33	X34	Y34	Z34	X35	Y35	Z35	X36	Y36	Z36	X37	Y37	Z37	X38	Y38	Z38	X39	Y39	Z39	X40	Y40	Z40	X41	Y41	Z41	X42	Y42	Z42	X43	Y43	Z43	X44	Y44	Z44	X45	Y45	Z45	X46	Y46	Z46	X47	Y47	Z47	X48	Y48	Z48	X49	Y49	Z49	X50	Y50	Z50	X51	Y51	Z51	X52	Y52	Z52	X53	Y53	Z53	

364	3.63	-294.0692443847656	1091.915405273438	-437.5890808105469	-316.8899230957031	1109.541015625	-568.984375	-311.6128234863281	1137.190185546875	-505.9059753417969	-84.19580841064453	1324.909057617188	-538.294189453125	-336.935546875	1292.97509765625	-501.9931335449219	-283.4701232910156	1581.143798828125	-515.7315063476562	-109.7348175048828	1462.059448242188	-529.9989013671875	-337.5274047851562	1395.726440429688	-431.6771850585938	-302.2673034667969	1566.671630859375	-617.0535278320312	-223.3904876708984	1554.630126953125	-690.9015502929688	-244.1157073974609	1435.750366210938	-776.505615234375	-200.3631439208984	1233.2314453125	-848.32421875	-249.6075897216797	1194.627197265625	-788.3287353515625	-34.18810653686523	1013.556030273438	-883.0509643554688	-111.3274307250977	968.3890991210938	-900.6034545898438	-159.5422668457031	1128.978271484375	-881.8395385742188	32.20743560791016	834.3753051757812	-908.785888671875	-64.98747253417969	907.35693359375	-924.5012817382812	0.4528101086616516	936.8304443359375	-918.9000244140625	-212.9599304199219	1548.079956054688	-341.7396240234375	-232.7248687744141	1473.842163085938	-280.9904174804688	-285.015869140625	1185.647338867188	-273.4532470703125	-292.1268005371094	1190.159545898438	-369.6365051269531	-177.8423309326172	926.252685546875	-299.7011108398438	-252.9435729980469	918.6851196289062	-268.1303100585938	-271.7867431640625	1109.494873046875	-261.4992065429688	-183.1021575927734	731.9313354492188	-330.352783203125	-164.7297058105469	814.2113647460938	-300.6834716796875	-230.5682067871094	814.478759765625	-269.6658020019531	-230.7510681152344	1744.538208007812	-432.7793884277344	-55.78590774536133	1807.674438476562	-552.9608764648438	-62.56936645507812	1795.95849609375	-422.954833984375	-232.7315368652344	1760.541381835938	-568.9049682617188	-262.2998352050781	1024.64453125	-699.9768676757812	-146.0449523925781	987.033935546875	-359.1311645507812	-77.66354370117188	1061.519409179688	-423.8296813964844	-138.6085815429688	1077.6240234375	-683.2893676757812	-303.9800720214844	523.7312622070312	-685.2665405273438	-309.7660522460938	673.0580444335938	-700.6181030273438	-485.5325622558594	39.80983352661133	-634.2688598632812	-443.4442443847656	292.9980773925781	-672.3438110351562	-247.1261596679688	34.44280242919922	-657.598388671875	-314.7284545898438	40.33735275268555	-597.6220703125	-377.3232116699219	34.24482345581055	-700.5398559570312	-532.6551513671875	44.15575408935547	-553.8670043945312	19.40458679199219	541.2324829101562	-463.5404357910156	-72.43755340576172	795.0960693359375	-384.6100158691406	39.13737869262695	27.97632598876953	-561.1177368164062	26.33711051940918	403.8250427246094	-473.8223571777344	252.2960510253906	104.6426467895508	-586.5199584960938	207.5596466064453	77.53581237792969	-635.2955322265625	162.4004364013672	60.69515228271484	-527.1564331054688	-12.90625762939453	23.37407493591309	-614.4020385742188	
365	3.64	-286.2900390625	1090.119384765625	-439.9501342773438	-308.6187438964844	1107.838012695312	-571.3731689453125	-303.5983581542969	1135.446533203125	-508.2726440429688	-76.05502319335938	1322.965087890625	-539.3946533203125	-329.0310363769531	1291.256713867188	-504.4979858398438	-275.3271484375	1579.42431640625	-517.9290161132812	-101.534065246582	1460.126586914062	-531.0829467773438	-329.9557189941406	1393.923950195312	-434.3551940917969	-293.4385375976562	1565.000610351562	-619.3631591796875	-214.00146484375	1552.939086914062	-692.6776733398438	-234.1425323486328	1434.004516601562	-778.3794555664062	-189.3164978027344	1231.67626953125	-849.975341796875	-238.4624786376953	1192.625366210938	-790.171875	-20.0294017791748	1014.344909667969	-883.734619140625	-96.37512969970703	967.9801635742188	-901.6243286132812	-147.1195373535156	1127.856567382812	-883.2534790039062	49.45292663574219	836.3182983398438	-908.9107055664062	-48.9521484375	907.6697387695312	-925.1852416992188	16.03227043151855	938.1718139648438	-919.3959350585938	-205.8707427978516	1546.122314453125	-343.4061584472656	-226.2164154052734	1471.829467773438	-282.9247131347656	-279.1204833984375	1183.712890625	-276.3966674804688	-285.3827514648438	1188.3759765625	-372.6398315429688	-172.0355834960938	924.2316284179688	-302.341552734375	-247.3223876953125	916.693115234375	-271.2665405273438	-266.0826416015625	1107.512817382812	-264.4893493652344	-177.3814849853516	729.9974365234375	-333.6109619140625	-159.1409454345703	812.1483154296875	-303.60302734375	-225.1348571777344	812.4503784179688	-272.9985961914062	-223.217529296875	1742.674438476562	-434.6986999511719	-47.6148681640625	1805.713745117188	-553.0192260742188	-55.19483184814453	1794.061157226562	-423.2292175292969	-223.9822082519531	1758.742431640625	-570.7341918945312	-253.6394653320312	1022.939025878906	-702.1657104492188	-138.6339263916016	985.0006103515625	-360.9429016113281	-70.02825927734375	1059.4775390625	-425.2856750488281	-129.99951171875	1075.842163085938	-684.9873046875	-298.5217895507812	522.345947265625	-686.4766235351562	-302.958251953125	671.7176513671875	-702.146240234375	-485.3732299804688	40.4926643371582	-634.155029296875	-440.4036560058594	293.0301513671875	-673.0232543945312	-247.0431823730469	34.3046875	-657.5569458007812	-314.6046447753906	40.25936889648438	-597.5927734375	-377.2245483398438	34.32824325561523	-700.3939819335938	-532.592529296875	45.32965469360352	-553.836181640625	24.11634063720703	538.6412963867188	-464.1955871582031	-66.63335418701172	792.1157836914062	-385.8394165039062	64.36748504638672	27.79748725891113	-563.6322021484375	35.47818756103516	402.3165588378906	-474.5924682617188	274.9484558105469	111.587890625	-585.7675170898438	232.0739593505859	82.94852447509766	-635.2232055664062	185.8805694580078	64.32858276367188	-527.7818603515625	13.1167688369751	21.65482330322266	-617.5953979492188	
366	3.65	-278.2703247070312	1088.311889648438	-442.217041015625	-300.1443176269531	1106.11083984375	-573.6507568359375	-295.3597412109375	1133.662109375	-510.5272216796875	-67.76302337646484	1321.028930664062	-540.388671875	-320.9523010253906	1289.503784179688	-506.8443603515625	-267.0312194824219	1577.675415039062	-519.9586791992188	-93.20346069335938	1458.194213867188	-532.0424194335938	-322.2420654296875	1392.074829101562	-436.8824768066406	-284.5265197753906	1563.294799804688	-621.5162963867188	-204.5311584472656	1551.194946289062	-694.3082275390625	-224.1088409423828	1432.184204101562	-780.06884765625	-178.3621978759766	1229.992919921875	-851.3671264648438	-227.4590759277344	1190.5654296875	-791.744140625	-6.145371437072754	1014.953308105469	-884.02587890625	-81.68264770507812	967.4313354492188	-902.2117919921875	-134.8587036132812	1126.5830078125	-884.3486938476562	66.30619049072266	838.0808715820312	-908.5562744140625	-33.23669052124023	907.8136596679688	-925.4052124023438	31.26815414428711	939.3004760742188	-919.4463500976562	-198.6183776855469	1544.146362304688	-344.9315795898438	-219.5492553710938	1469.80224609375	-284.7226867675781	-273.034912109375	1181.7724609375	-279.170166015625	-278.4552917480469	1186.5615234375	-375.4485168457031	-166.0375366210938	922.1943969726562	-304.7975463867188	-241.5032806396484	914.6898803710938	-274.2134094238281	-260.1728515625	1105.522583007812	-267.289306640625	-171.4785308837891	728.047119140625	-336.6669006347656	-153.3530426025391	810.0784912109375	-306.3240966796875	-219.4962921142578	810.4117431640625	-276.129638671875	-215.5519714355469	1740.776977539062	-436.4984436035156	-39.36261749267578	1803.791137695312	-552.939453125	-47.73073959350586	1792.165771484375	-423.3760375976562	-215.1588134765625	1756.921020507812	-572.4033203125	-244.8128356933594	1021.242858886719	-704.2803955078125	-130.9032135009766	982.956787109375	-362.6724243164062	-62.16000366210938	1057.445556640625	-426.6997375488281	-121.2139511108398	1074.0712890625	-686.6235961914062	-292.9209899902344	521.0059204101562	-687.726806640625	-296.0505065917969	670.4342651367188	-703.6680297851562	-485.2093811035156	41.26710891723633	-634.1270141601562	-437.3084106445312	293.1681213378906	-673.7764282226562	-246.9586639404297	34.14009475708008	-657.5237426757812	-314.4826354980469	40.22269058227539	-597.5989379882812	-377.1243286132812	34.38192749023438	-700.2962646484375	-532.5469360351562	46.71450424194336	-553.896240234375	28.97982406616211	536.0283203125	-464.8077392578125	-60.51025009155273	789.1619262695312	-387.1459655761719	88.41164398193359	28.00555801391602	-565.3826293945312	44.38557434082031	400.8734130859375	-475.1494445800781	296.3129577636719	118.6693801879883	-584.5318603515625	255.1824340820312	88.57775115966797	-634.5947265625	208.1349182128906	68.16120147705078	-527.8045043945312	37.93986511230469	20.44247627258301	-619.955078125	
367	3.66	-269.9958801269531	1086.52734375	-444.3884582519531	-291.4587707519531	1104.377563476562	-575.8241577148438	-286.8967895507812	1131.860229492188	-512.6796875	-59.31265258789062	1319.122924804688	-541.2776489257812	-312.6863708496094	1287.734130859375	-509.0440979003906	-258.5942993164062	1575.914916992188	-521.82421875	-84.74052429199219	1456.284423828125	-532.8743896484375	-314.3855590820312	1390.193969726562	-439.2637329101562	-275.5188293457031	1561.575439453125	-623.5134887695312	-194.9841156005859	1549.415161132812	-695.78759765625	-214.0080871582031	1430.317138671875	-781.5795288085938	-167.4897003173828	1228.207641601562	-852.5123291015625	-216.6006774902344	1188.477416992188	-793.0697021484375	7.453142642974854	1015.380065917969	-883.9362182617188	-67.28738403320312	966.749267578125	-902.3817138671875	-122.7568511962891	1125.180908203125	-885.1375732421875	82.76476287841797	839.687255859375	-907.7498779296875	-17.86112785339355	907.7904663085938	-925.1744384765625	46.15409088134766	940.2202758789062	-919.0592041015625	-191.2202606201172	1542.171630859375	-346.3179626464844	-212.7238616943359	1467.774169921875	-286.3813781738281	-266.7492370605469	1179.837768554688	-281.7747497558594	-271.3377075195312	1184.733642578125	-378.0698852539062	-159.8486175537109	920.1480102539062	-307.0522766113281	-235.5060882568359	912.6885375976562	-276.9732971191406	-254.0543823242188	1103.537841796875	-269.9014282226562	-165.3978576660156	726.0896606445312	-339.4927062988281	-147.3666229248047	808.0103149414062	-308.8192138671875	-213.6697998046875	808.3726196289062	-279.0504455566406	-207.7648620605469	1738.867065429688	-438.1567077636719	-30.99373054504395	1801.932495117188	-552.7410278320312	-40.17822647094727	1790.293334960938	-423.3937072753906	-206.2694396972656	1755.093383789062	-573.9037475585938	-235.8287963867188	1019.559936523438	-706.3243408203125	-122.8493118286133	980.94189453125	-364.3078308105469	-54.04111862182617	1055.453247070312	-428.0642395019531	-112.2380447387695	1072.328247070312	-688.1973266601562	-287.1110229492188	519.7158203125	-689.0057983398438	-289.0009765625	669.212158203125	-705.1932983398438	-485.0294494628906	42.15624618530273	-634.1979370117188	-434.1085815429688	293.4148559570312	-674.6070556640625	-246.8724822998047	33.93906784057617	-657.49658203125	-314.3615417480469	40.22460556030273	-597.6419067382812	-377.02099609375	34.41030120849609	-700.2459716796875	-532.513427734375	48.32670593261719	-554.0599365234375	34.09719848632812	533.4523315429688	-465.3467712402344	-53.99611282348633	786.3244018554688	-388.5018920898438	110.9665908813477	28.45797348022461	-566.47021484375	53.06885147094727	399.4811096191406	-475.5007934570312	316.2323608398438	125.5619506835938	-582.7815551757812	276.7063293457031	94.14723968505859	-633.398681640625	228.9027404785156	71.96881866455078	-527.2510986328125	61.27167510986328	19.62870597839355	-621.6141967773438	
